<svg width="252" height="110" viewBox="0 0 252 110" fill="none" xmlns="http://www.w3.org/2000/svg">
<path fill-rule="evenodd" clip-rule="evenodd" d="M430.809 -54.5819C430.336 -51.4909 428.947 -48.4829 426.919 -45.5579C427.758 -47.4059 428.346 -49.2899 428.621 -51.2139C429.379 -56.5009 427.751 -61.7809 423.781 -66.9099C420.344 -71.3299 414.869 -72.8849 407.963 -72.3319C416.413 -74.0629 422.934 -73.2529 426.434 -68.7259C430.107 -63.9759 431.538 -59.3489 430.809 -54.5819V-54.5819ZM415.559 23.1011C418.409 23.7821 419.351 24.6031 419.292 25.0991C419.217 25.7311 418.566 26.4601 417.435 27.2641C416.804 25.2881 413.665 24.5251 412.528 24.2501C389.496 18.6951 377.668 12.8001 376.368 6.22811C376.247 5.62111 376.226 5.00611 376.281 4.38611C376.489 4.17211 376.697 3.95711 376.905 3.74211C378.772 11.0851 391.086 17.2491 415.559 23.1011V23.1011ZM379.5 56.0511C379.313 55.9131 379.103 55.7831 378.86 55.6641C380.783 54.9441 382.564 54.2371 384.192 53.5461C383.137 54.2661 381.572 55.1051 379.5 56.0511V56.0511ZM376.432 59.6831C376.408 59.6471 376.39 59.6101 376.363 59.5731C376.58 59.4851 376.794 59.3971 377.003 59.3111C376.83 59.4301 376.64 59.5541 376.432 59.6831V59.6831ZM214.848 107.385C206.141 107.999 202.733 98.8051 199.093 89.0851C196.377 81.8341 193.585 74.4171 188.314 71.7131C194.045 73.0191 197.143 80.1231 200.379 87.5751C204.327 96.6671 208.404 106.057 217.761 106.057C218.068 106.057 218.381 106.047 218.7 106.026C235.568 104.937 269.617 97.6261 298.997 90.1581C268.749 98.0641 232.203 106.178 214.848 107.385V107.385ZM116.333 78.6181C115.369 78.7391 114.465 78.8821 113.594 79.0331C115.205 78.6741 116.985 78.3551 118.997 78.1341C122.411 77.7631 125.659 77.4541 128.786 77.1811C124.866 77.6011 120.733 78.0701 116.333 78.6181V78.6181ZM92.5165 75.8161C88.4525 68.1341 82.8405 67.0121 76.9005 65.8241C72.1275 64.8691 67.1945 63.8821 62.1705 59.5151C49.0035 48.0691 10.7805 -1.80689 2.52753 -15.2939C2.48353 -15.3669 2.44253 -15.4359 2.40453 -15.4999C2.86653 -15.3069 3.45453 -15.0149 4.12153 -14.6599C4.22353 -13.8969 4.72653 -13.1049 5.02653 -12.6339C13.9755 1.40311 51.1755 47.3561 64.4465 58.8441C69.8195 63.4981 75.0795 64.5741 79.7215 65.5231C85.4575 66.6961 89.9885 67.6231 93.5215 74.4991C96.5635 80.4181 98.9785 82.0631 102.29 81.8731C97.9065 82.9571 95.9595 82.3251 92.5165 75.8161V75.8161ZM118.932 -49.8029C121.054 -53.7169 120.197 -60.7589 117.502 -69.7879C120.502 -60.5269 121.691 -53.3189 119.808 -49.6459C117.421 -44.9899 112.601 -42.2919 106.613 -40.4099C112.013 -42.4419 116.487 -45.2909 118.932 -49.8029V-49.8029ZM75.2815 -230.71C89.0665 -233.49 132.648 -216.458 164.472 -204.017C180.232 -197.855 193.843 -192.534 200.63 -190.83C201.181 -190.692 201.713 -190.636 202.232 -190.649C201.416 -190.307 200.582 -190.215 199.716 -190.432C193.071 -192.101 179.65 -197.336 164.109 -203.398C130.787 -216.396 89.3195 -232.569 75.0425 -229.781C74.1175 -229.6 73.3175 -229.255 72.6365 -228.762C73.1965 -229.812 74.0555 -230.462 75.2815 -230.71V-230.71ZM271.539 -249.003C287.766 -245.805 291.401 -226.857 290.943 -204.765C290.906 -225.907 286.585 -243.71 270.122 -246.996C255.428 -249.946 244.534 -246.46 236.16 -240.059C244.531 -247.684 255.707 -252.124 271.539 -249.003V-249.003ZM289.354 -125.767C289.703 -125.449 290.079 -125.237 290.482 -125.113C289.782 -124.876 289.232 -124.885 288.872 -125.218C287.329 -126.652 286.507 -129.556 286.168 -133.471C286.674 -129.942 287.669 -127.301 289.354 -125.767V-125.767ZM381.165 -138.724C389.424 -131.88 393.341 -124.099 392.807 -115.596C392.398 -109.084 389.425 -102.33 384.664 -95.5129C388.381 -101.508 390.668 -107.478 391.026 -113.332C391.575 -122.317 387.488 -130.492 378.88 -137.629C361.594 -151.967 346.279 -154.276 333.357 -151.392C333.663 -151.483 333.963 -151.586 334.272 -151.672C350.025 -156.051 365.364 -151.815 381.165 -138.724V-138.724ZM426.642 -51.4979C426.187 -48.3279 424.786 -45.2379 422.736 -42.2299C423.612 -44.1729 424.217 -46.1529 424.485 -48.1739C425.188 -53.4809 423.527 -58.7629 419.548 -63.8739C415.966 -68.4749 410.429 -70.1479 403.539 -69.6859C411.949 -71.3299 418.531 -70.4029 422.201 -65.6839C425.876 -60.9359 427.33 -56.2949 426.642 -51.4979V-51.4979ZM385.716 49.3891C385.371 49.2461 384.999 49.1131 384.571 48.9981C384.461 48.9691 384.362 48.9391 384.253 48.9101C387.423 47.8451 390.425 46.7661 393.133 45.6911C393.194 45.7661 393.213 45.8231 393.209 45.8581C393.204 45.9121 393.177 45.9711 393.16 46.0281C391.35 47.0101 388.872 48.1361 385.716 49.3891V49.3891ZM374.134 58.2971C374.12 58.2931 374.109 58.2881 374.094 58.2841C373.605 58.1461 373.143 58.0051 372.669 57.8661C373.753 57.4981 374.808 57.1321 375.831 56.7691C376.24 56.8851 376.631 57.0041 377.05 57.1201C376.148 57.4991 375.174 57.8911 374.134 58.2971V58.2971ZM371.984 61.9701C371.756 61.8281 371.475 61.6961 371.154 61.5741C372.24 61.1771 373.251 60.7961 374.203 60.4291C374.447 60.5301 374.59 60.6151 374.671 60.6721C373.899 61.0741 373.013 61.5051 371.984 61.9701V61.9701ZM203.555 85.3721C207.83 93.8961 212.245 102.701 221.511 102.7C221.806 102.7 222.108 102.69 222.413 102.672C239.763 101.639 274.686 94.2231 304.32 86.7241C273.863 94.6541 236.43 102.877 218.571 104.03C209.945 104.582 206.191 95.9371 202.214 86.7791C199.281 80.0241 196.267 73.1221 191.046 70.5471C196.747 71.7911 200.071 78.4251 203.555 85.3721V85.3721ZM121.417 75.6621C126.05 75.2331 130.327 74.9381 134.4 74.7121C129.556 75.0851 124.373 75.5381 118.781 76.1461C117.683 76.2661 116.662 76.4181 115.687 76.5841C117.376 76.1971 119.259 75.8631 121.417 75.6621V75.6621ZM8.59953 -12.0929C8.77853 -11.7399 8.99653 -11.3809 9.23453 -11.0229C18.5245 2.98611 54.6455 45.1151 68.0375 56.6621C73.3595 61.2511 78.4495 62.3161 82.9395 63.2551C88.4765 64.4141 92.8495 65.3291 96.2985 72.2421C99.1425 77.9441 101.412 79.6201 104.447 79.5131C100.386 80.5621 98.5555 79.9181 95.3005 73.5851C91.3285 65.8561 85.8855 64.7421 80.1225 63.5641C75.5065 62.6191 70.7335 61.6431 65.7545 57.3331C52.8195 46.1341 16.9705 1.92411 7.24553 -12.8939C7.68953 -12.6329 8.14153 -12.3659 8.59953 -12.0929V-12.0929ZM32.2975 -7.32989C32.2485 -7.21789 32.1945 -7.10989 32.1605 -6.98789C31.6175 -7.13589 31.0695 -7.29789 30.5155 -7.47389C30.6045 -7.51889 30.7045 -7.56189 30.8265 -7.60189C31.3115 -7.50489 31.8015 -7.41389 32.2975 -7.32989V-7.32989ZM198.323 -188.1C191.694 -189.764 178.405 -194.936 163.017 -200.924C130.212 -213.69 89.3855 -229.573 75.2085 -226.896C74.2595 -226.717 73.4395 -226.37 72.7465 -225.865C73.3115 -226.925 74.1825 -227.575 75.4275 -227.818C89.1085 -230.501 132.044 -213.759 163.382 -201.535C178.986 -195.448 192.461 -190.191 199.23 -188.492C199.797 -188.349 200.346 -188.291 200.88 -188.306C200.05 -187.967 199.203 -187.88 198.323 -188.1V-188.1ZM288.914 -201.184C288.86 -222.09 284.598 -239.744 268.322 -243.035C253.783 -246.012 242.982 -242.611 234.667 -236.337C242.985 -243.823 254.063 -248.178 269.73 -245.035C285.77 -241.833 289.351 -223.035 288.914 -201.184V-201.184ZM287.049 -123.199C285.544 -124.626 284.736 -127.476 284.394 -131.305C284.899 -127.863 285.872 -125.275 287.51 -123.753C287.872 -123.417 288.264 -123.197 288.682 -123.068C287.974 -122.834 287.415 -122.85 287.049 -123.199V-123.199ZM387.253 -111.197C387.775 -119.991 383.76 -128.001 375.322 -135.003C357.66 -149.67 342.124 -151.579 329.161 -148.274C342.515 -152.747 358.716 -151.757 377.603 -136.09C385.693 -129.382 389.538 -121.767 389.03 -113.454C388.602 -106.449 385.24 -99.2229 379.875 -91.9589C384.201 -98.4359 386.879 -104.89 387.253 -111.197V-111.197ZM422.502 -48.4369C422.082 -45.2669 420.731 -42.1689 418.744 -39.1479C421.677 -45.9029 421.359 -53.0999 415.319 -60.8349C411.544 -65.6679 405.869 -67.4509 398.896 -67.0299C407.376 -68.6479 414.098 -67.6189 417.97 -62.6449C421.659 -57.9069 423.141 -53.2589 422.502 -48.4369V-48.4369ZM408.586 31.6061C407.525 30.9291 406.182 30.5921 405.539 30.4331C384.122 25.1731 373.03 19.4531 371.628 12.9471C371.35 11.6541 371.465 10.3251 371.898 8.96411C371.927 9.30411 371.97 9.64511 372.04 9.98511C373.584 17.4651 385.189 23.5971 408.558 29.2831C410.08 29.6551 410.972 30.0661 411.426 30.4271C410.542 30.8121 409.599 31.2041 408.586 31.6061V31.6061ZM373.113 53.8611C372.315 53.6081 371.542 53.3521 370.792 53.0921C374.183 52.1071 377.569 51.0811 380.831 50.0331C381.431 50.2081 382.066 50.3781 382.689 50.5501C379.913 51.5831 376.731 52.6881 373.113 53.8611V53.8611ZM367.95 60.5821C367.334 60.3881 366.734 60.1921 366.148 59.9941C367.257 59.6451 368.337 59.2981 369.4 58.9511C369.94 59.1251 370.477 59.2991 371.038 59.4701C370.056 59.8331 369.029 60.2031 367.95 60.5821V60.5821ZM366.444 64.2721C365.901 64.1091 365.356 63.9461 364.834 63.7801C365.882 63.4281 366.911 63.0791 367.897 62.7351C367.937 62.7211 367.974 62.7081 368.015 62.6941C368.458 62.8311 368.912 62.9661 369.369 63.1011C368.469 63.4741 367.491 63.8661 366.444 64.2721V64.2721ZM206.748 83.1781C211.345 91.1291 216.092 99.3431 225.261 99.3431C225.543 99.3431 225.832 99.3351 226.123 99.3191C243.915 98.3491 279.589 90.8631 309.41 83.3561C278.794 91.2931 240.618 99.5851 222.293 100.676C213.728 101.186 209.654 93.0691 205.343 84.4761C202.22 78.2471 199.012 71.8881 193.89 69.4151C199.498 70.6521 203.042 76.7661 206.748 83.1781V83.1781ZM123.833 73.1911C129.532 72.7571 134.713 72.5521 139.624 72.4481C133.964 72.6961 127.961 73.0481 121.233 73.6701C120.054 73.7801 118.962 73.9311 117.928 74.1031C119.657 73.7001 121.593 73.3641 123.833 73.1911V73.1911ZM13.7015 -9.0319C23.3035 4.6841 58.1355 42.9011 71.6255 54.4831C76.8955 59.0081 81.8155 60.0621 86.1555 60.9921C91.4925 62.1361 95.7075 63.0391 99.0705 69.9901C101.716 75.4581 103.836 77.1781 106.605 77.1651C105.197 77.5411 104.04 77.6891 103.047 77.3771C101.424 76.8651 99.9405 75.0631 98.0875 71.3501C94.2065 63.5691 88.9325 62.4661 83.3485 61.2971C78.8875 60.3641 74.2745 59.3991 69.3435 55.1471C57.0495 44.5471 23.7465 5.9151 12.5835 -9.7009C12.9545 -9.4779 13.3265 -9.2549 13.7015 -9.0319V-9.0319ZM67.9215 -27.5809C67.9155 -27.5849 67.9115 -27.5889 67.9065 -27.5939C68.0035 -27.6629 68.0995 -27.7319 68.1995 -27.7999C68.1065 -27.7279 68.0125 -27.6549 67.9215 -27.5809V-27.5809ZM196.928 -185.766C190.318 -187.426 177.164 -192.532 161.934 -198.445C129.647 -210.979 89.4705 -226.576 75.3735 -224.012C74.4055 -223.835 73.5675 -223.486 72.8625 -222.974C73.4335 -224.042 74.3165 -224.692 75.5795 -224.931C89.1905 -227.504 131.445 -211.064 162.292 -199.06C177.743 -193.047 191.085 -187.855 197.836 -186.16C198.433 -186.01 199.011 -185.948 199.574 -185.967C198.715 -185.62 197.838 -185.538 196.928 -185.766V-185.766ZM286.89 -197.625C286.814 -218.284 282.605 -235.777 266.523 -239.073C252.743 -241.945 242.434 -239.196 234.393 -233.678C242.511 -240.373 253.167 -244.093 267.923 -241.076C283.774 -237.87 287.302 -219.228 286.89 -197.625V-197.625ZM285.227 -121.179C283.75 -122.607 282.955 -125.43 282.615 -129.213C283.114 -125.823 284.071 -123.267 285.672 -121.748C286.051 -121.389 286.461 -121.16 286.9 -121.027C286.178 -120.793 285.605 -120.813 285.227 -121.179V-121.179ZM383.482 -109.055C383.977 -117.66 380.035 -125.505 371.765 -132.373C354.378 -146.829 339.122 -148.725 326.417 -145.505C339.509 -149.893 355.429 -148.924 374.044 -133.464C381.966 -126.891 385.739 -119.439 385.257 -111.315C384.852 -104.478 381.565 -97.4129 376.315 -90.3049C380.523 -96.6229 383.128 -102.914 383.482 -109.055V-109.055ZM414.567 -35.8279C417.507 -42.6939 417.193 -49.9879 411.082 -57.7899C406.881 -63.1559 400.622 -64.9729 393.015 -64.2919C402.109 -66.2089 409.403 -65.1619 413.743 -59.6039C420.344 -51.1499 419.31 -43.2479 414.567 -35.8279V-35.8279ZM364.227 54.9511C365.315 54.6501 366.411 54.3441 367.51 54.0331C368.271 54.3231 369.058 54.6101 369.871 54.8941C368.827 55.2211 367.745 55.5541 366.636 55.8911C365.798 55.5831 365 55.2691 364.227 54.9511V54.9511ZM359.733 61.9521C360.826 61.6271 361.907 61.3031 362.965 60.9811C363.572 61.2091 364.196 61.4331 364.834 61.6551C363.823 61.9981 362.775 62.3461 361.692 62.7001C361.018 62.4541 360.365 62.2051 359.733 61.9521V61.9521ZM323.237 73.6541C292.535 81.4721 252.868 89.7481 233.46 90.6111C225.081 90.9881 219.863 84.1761 214.811 77.5941C210.385 71.8281 205.832 65.9191 199.187 64.9791C199.276 64.9581 199.362 64.9411 199.451 64.9191C207.913 62.8561 213.709 68.4921 219.847 74.4631C225.635 80.0951 231.614 85.9141 240.298 85.9141C240.522 85.9141 240.748 85.9101 240.975 85.9021C262.888 85.1471 318.616 73.8701 356.722 62.8341C357.35 63.1181 358.001 63.3971 358.675 63.6731C349.233 66.6721 337.394 70.0481 323.237 73.6541V73.6541ZM69.5385 -26.2349C69.5185 -26.2529 69.4975 -26.2699 69.4775 -26.2879C69.7715 -26.5189 70.0765 -26.7419 70.3885 -26.9579C70.0975 -26.7249 69.8145 -26.4839 69.5385 -26.2349V-26.2349ZM195.531 -183.425C188.937 -185.081 175.918 -190.123 160.844 -195.96C129.075 -208.263 89.5245 -223.579 75.5375 -221.119C74.5435 -220.945 73.6855 -220.594 72.9655 -220.07C73.5425 -221.155 74.4435 -221.81 75.7325 -222.044C89.2675 -224.51 130.85 -208.367 161.21 -196.581C176.502 -190.644 189.709 -185.517 196.442 -183.826C197.071 -183.667 197.679 -183.608 198.27 -183.633C197.382 -183.277 196.474 -183.189 195.531 -183.425V-183.425ZM284.854 -193.436C284.831 -214.097 280.75 -231.733 264.717 -235.102C250.769 -238.032 240.398 -235.155 232.335 -229.499C240.468 -236.353 251.184 -240.228 266.118 -237.114C281.932 -233.874 285.32 -215.056 284.854 -193.436V-193.436ZM283.4 -119.149C281.929 -120.601 281.143 -123.457 280.812 -127.276C281.3 -123.86 282.245 -121.281 283.836 -119.741C284.231 -119.359 284.66 -119.12 285.118 -118.981C284.377 -118.744 283.788 -118.767 283.4 -119.149V-119.149ZM379.705 -106.902C380.175 -115.319 376.305 -123.002 368.203 -129.736C351.082 -143.99 336.098 -145.865 323.647 -142.723C336.482 -147.035 352.13 -146.098 370.487 -130.834C378.241 -124.395 381.942 -117.106 381.485 -109.17C381.101 -102.501 377.888 -95.5969 372.754 -88.6459C376.842 -94.8019 379.371 -100.929 379.705 -106.902V-106.902ZM402.619 -51.7159C396.437 -59.5679 386.897 -60.5929 375.654 -57.6069C390.549 -63.6709 402.959 -64.9189 409.508 -56.5569C417.883 -45.8629 414.122 -35.9679 406.153 -26.7949C405.597 -26.3979 405.04 -26.0029 404.485 -25.6099C409.122 -33.7489 409.934 -42.4269 402.619 -51.7159V-51.7159ZM357.97 56.6431C359.008 56.3681 360.062 56.0861 361.127 55.7981C361.887 56.1471 362.672 56.4921 363.502 56.8311C362.471 57.1361 361.415 57.4441 360.334 57.7561C359.508 57.3911 358.714 57.0211 357.97 56.6431V56.6431ZM354.365 59.4411C353.598 59.0181 352.874 58.5861 352.205 58.1441C353.169 57.8971 354.159 57.6421 355.165 57.3801C355.875 57.7911 356.64 58.1901 357.431 58.5851C356.429 58.8681 355.407 59.1531 354.365 59.4411V59.4411ZM223.234 72.2911C229.284 77.3401 235.534 82.5571 244.069 82.5571C244.273 82.5571 244.48 82.5541 244.687 82.5481C264.76 81.9601 304.445 74.1071 334.99 66.5631C333.663 66.9011 332.315 67.2421 330.94 67.5851C300.391 75.2161 260.705 83.2221 240.907 83.9031C232.688 84.1881 226.878 78.5141 221.242 73.0301C217.355 69.2491 213.382 65.3971 208.648 63.5721C213.982 64.5881 218.517 68.3531 223.234 72.2911V72.2911ZM33.1065 0.348109C42.3185 10.4421 59.1795 24.0251 73.0095 35.1651C77.9115 39.1121 82.5395 42.8411 85.9915 45.7561C91.0425 50.0221 95.4835 51.0791 99.0515 51.9281C103.755 53.0461 107.153 53.8551 110.177 60.9671C111.832 64.8611 113.285 66.8141 115.032 67.4981C116.946 68.2481 118.848 67.3911 121.257 66.3081C124.032 65.0611 127.832 63.3531 133.508 63.3021C143.627 63.2121 152.292 64.2761 160.669 65.2981C168.285 66.2271 175.651 67.1181 183.313 66.9691C174.298 67.8841 165.826 67.3891 156.427 66.8301C147.897 66.3231 139.074 65.7991 128.586 66.2471C122.78 66.4991 118.783 68.0731 115.864 69.2221C111.077 71.1061 109.636 71.6711 106.446 64.6481C102.841 56.7131 98.2985 55.6901 93.0385 54.5061C89.2205 53.6461 84.8925 52.6701 80.1055 48.5951C67.6015 37.9461 41.6785 13.6831 28.6095 -1.12889C30.2015 -0.481891 31.7135 0.027109 33.1065 0.348109V0.348109ZM58.4115 -23.0789C58.1805 -22.6069 57.9735 -22.1169 57.7825 -21.6119C55.9975 -22.6459 54.3175 -23.4249 52.7915 -23.7539C52.8565 -24.2949 52.9265 -24.8439 53.0075 -25.4009C54.4185 -25.3059 56.3145 -24.3889 58.4115 -23.0789V-23.0789ZM192.739 -178.755C186.179 -180.403 173.43 -185.314 158.668 -191.001C127.935 -202.842 89.6785 -217.584 75.8645 -215.347C75.0205 -215.211 74.2765 -214.943 73.6235 -214.56C73.3815 -215.39 73.1625 -216.192 72.9665 -216.968C72.9785 -216.994 72.9855 -217.026 72.9975 -217.051C73.5785 -218.225 74.5215 -218.911 75.8815 -219.149C89.3165 -221.502 130.247 -205.664 160.122 -194.095C175.258 -188.234 188.33 -183.171 195.044 -181.486C196.616 -181.09 198.058 -181.277 199.423 -181.93C197.263 -179.458 195.105 -178.164 192.739 -178.755V-178.755ZM344.284 -62.3939C359.852 -75.6209 371.463 -89.3799 372.159 -102.601C372.581 -110.647 368.855 -118.008 361.083 -124.478C338.832 -143.052 320.453 -140.021 306.779 -132.721C321.254 -142.524 341.379 -149.466 366.923 -128.199C374.512 -121.891 378.141 -114.764 377.708 -107.014C376.906 -92.6309 362.521 -77.0729 344.284 -62.3939V-62.3939ZM398.388 -48.6749C393.801 -54.4849 387.741 -56.8279 380.689 -56.6959C389.178 -58.0879 396.281 -56.5309 401.048 -50.4789C408.023 -41.6219 406.788 -33.2059 401.851 -25.2499C405.041 -32.6429 404.888 -40.4419 398.388 -48.6749V-48.6749ZM350.122 56.6121C350.173 56.5991 350.223 56.5871 350.274 56.5751C350.224 56.5871 350.173 56.6001 350.123 56.6121H350.122ZM342.501 58.5001C312.163 65.8561 272.435 73.4511 252.075 73.8381C251.93 73.8411 251.788 73.8431 251.645 73.8431C244.011 73.8421 237.535 69.9641 231.269 66.2121C227.156 63.7491 222.965 61.2441 218.466 59.8911C223.719 60.6731 228.719 63.1511 233.905 65.7321C240.58 69.0541 247.477 72.4871 255.441 72.4871C255.568 72.4871 255.697 72.4861 255.825 72.4841C276.515 72.1971 316.44 64.7071 346.829 57.4111C347.14 57.3361 347.459 57.2591 347.784 57.1811C347.788 57.1861 347.794 57.1901 347.8 57.1961C346.078 57.6251 344.323 58.0591 342.501 58.5001V58.5001ZM230.241 67.9281C236.742 71.8201 243.458 75.8431 251.637 75.8431C251.794 75.8431 251.954 75.8411 252.113 75.8381H252.112C272.624 75.4481 312.527 67.8251 342.973 60.4441C344.954 59.9631 347.214 59.4071 349.671 58.7871C350.297 59.2601 350.985 59.7191 351.704 60.1711C346.529 61.5781 340.906 63.0401 334.793 64.5521C304.315 72.0921 264.616 79.9631 244.628 80.5491C236.501 80.7941 230.422 75.6861 224.515 70.7551C219.377 66.4671 214.102 62.0771 207.599 61.3921C215.983 59.4101 222.916 63.5411 230.241 67.9281V67.9281ZM135.686 60.8271C135.764 60.8271 135.843 60.8271 135.921 60.8281C145.906 60.9221 154.506 62.2431 162.823 63.5201C163.083 63.5601 163.341 63.5991 163.601 63.6391C162.711 63.5321 161.817 63.4231 160.912 63.3131C152.472 62.2831 143.732 61.2331 133.491 61.3021C132.085 61.3151 130.802 61.4281 129.606 61.6001C131.351 61.1451 133.345 60.8271 135.686 60.8271V60.8271ZM36.2895 0.733109C44.2695 9.45911 58.6015 20.1071 71.3705 29.5911C78.3215 34.7531 84.8865 39.6291 89.5775 43.5731C94.5715 47.7731 98.8425 48.8191 102.276 49.6591C106.764 50.7581 110.007 51.5521 112.949 58.7101C114.544 62.5951 115.953 64.5321 117.657 65.1871C117.882 65.2731 118.109 65.3351 118.334 65.3771C117.303 65.7561 116.462 65.9111 115.761 65.6361C114.594 65.1791 113.405 63.4471 112.017 60.1851C108.598 52.1431 104.389 51.1411 99.5145 49.9821C95.9785 49.1411 91.9685 48.1871 87.2825 44.2281C83.8125 41.2981 79.3875 37.7341 74.2645 33.6071C61.2645 23.1361 45.5715 10.4941 36.2065 0.735109C36.2345 0.735109 36.2625 0.734109 36.2895 0.733109V0.733109ZM60.5185 -21.6849C60.3245 -21.2229 60.1545 -20.7399 59.9965 -20.2459C59.8365 -20.3499 59.6765 -20.4529 59.5185 -20.5529C59.6905 -21.0449 59.8885 -21.5149 60.1025 -21.9719C60.2405 -21.8779 60.3795 -21.7809 60.5185 -21.6849V-21.6849ZM78.3735 -18.6639C78.2515 -18.7669 78.1295 -18.8689 78.0065 -18.9719C78.9565 -20.6869 80.2795 -22.0809 81.8925 -23.2269C80.4275 -21.9759 79.2355 -20.4709 78.3735 -18.6639V-18.6639ZM191.346 -176.421C184.803 -178.064 172.19 -182.911 157.585 -188.522C127.371 -200.131 89.7595 -214.588 76.0335 -212.46C75.4465 -212.37 74.9115 -212.213 74.4145 -212.004C74.3555 -212.189 74.3055 -212.362 74.2465 -212.545C74.7695 -212.963 75.4025 -213.248 76.1815 -213.373C89.4875 -215.516 129.051 -200.268 157.95 -189.135C172.773 -183.425 185.574 -178.493 192.252 -176.816C192.965 -176.636 193.65 -176.589 194.318 -176.627C193.354 -176.261 192.37 -176.166 191.346 -176.421V-176.421ZM278.78 -182.802C278.676 -202.682 274.742 -219.8 259.315 -223.21C245.605 -226.241 235.406 -223.458 227.455 -218.001C235.475 -224.619 246.005 -228.411 260.689 -225.221C275.898 -221.916 279.148 -203.617 278.78 -182.802V-182.802ZM277.929 -113.082C276.543 -114.535 275.791 -117.3 275.46 -120.965C275.937 -117.716 276.83 -115.237 278.317 -113.71C278.768 -113.246 279.266 -112.968 279.8 -112.823C279.002 -112.579 278.364 -112.626 277.929 -113.082V-113.082ZM368.389 -100.442C368.789 -108.305 365.135 -115.506 357.529 -121.845C341.305 -135.407 327.215 -137.288 315.574 -134.457C327.585 -138.451 342.336 -137.521 359.803 -122.941C367.166 -116.811 370.554 -110.192 370.161 -102.706C369.831 -96.4359 366.847 -89.9879 362.076 -83.4999C365.802 -89.1929 368.105 -94.8699 368.389 -100.442V-100.442ZM393.237 -17.6939C396.744 -25.6029 396.812 -33.9149 389.922 -42.5999C383.226 -51.0399 374.288 -52.8489 364.149 -50.6499C377.788 -56.0219 389.603 -56.5759 396.818 -47.4359C404.379 -37.8589 402.429 -28.7279 396.635 -20.1139C395.477 -19.2979 394.342 -18.4919 393.237 -17.6939V-17.6939ZM356.451 50.8981C357.377 50.6771 358.35 50.4431 359.366 50.1971L359.367 50.1981C358.417 50.4371 357.455 50.6761 356.479 50.9171C356.47 50.9111 356.459 50.9041 356.451 50.8981V50.8981ZM351.362 52.1601C351.342 52.1411 351.326 52.1221 351.306 52.1031C352.171 51.9031 353.028 51.7041 353.878 51.5051C353.895 51.5181 353.912 51.5301 353.927 51.5431C353.085 51.7481 352.223 51.9541 351.362 52.1601V52.1601ZM353.266 53.7611C353.785 53.6351 354.318 53.5061 354.864 53.3731C354.338 53.5051 353.812 53.6381 353.279 53.7711C353.275 53.7681 353.27 53.7641 353.266 53.7611V53.7611ZM237.725 63.5181C244.526 66.2781 251.555 69.1311 259.267 69.1311C259.357 69.1311 259.448 69.1311 259.538 69.1301C279.378 68.9591 316.48 62.2941 346.162 55.4381C346.178 55.4591 346.194 55.4811 346.211 55.5011C315.949 62.7611 276.299 70.2001 255.797 70.4841C248.152 70.6261 241.364 67.2111 234.796 63.9411C230.626 61.8661 226.382 59.7601 221.932 58.5831C227.211 59.2521 232.375 61.3461 237.725 63.5181V63.5181ZM62.6475 -20.1639C62.4915 -19.7119 62.3555 -19.2409 62.2325 -18.7599C62.0665 -18.8729 61.9005 -18.9859 61.7355 -19.0969C61.8715 -19.5779 62.0295 -20.0399 62.2025 -20.4889C62.3505 -20.3809 62.4985 -20.2719 62.6475 -20.1639V-20.1639ZM188.554 -171.751C182.042 -173.387 169.702 -178.101 155.412 -183.56C126.23 -194.707 89.9285 -208.59 76.3615 -206.686C76.3395 -206.683 76.3215 -206.678 76.2995 -206.674C75.8565 -207.848 75.4525 -208.978 75.0685 -210.083C75.4495 -210.264 75.8595 -210.41 76.3365 -210.483C89.5535 -212.519 128.455 -197.572 156.869 -186.655C171.534 -181.02 184.199 -176.154 190.86 -174.482C192.722 -174.013 194.415 -174.32 196.022 -175.193C193.596 -172.513 191.198 -171.09 188.554 -171.751V-171.751ZM332.731 -56.8439C348.243 -69.7279 360.224 -83.2419 360.842 -96.1229C361.202 -103.622 357.691 -110.507 350.41 -116.586C329.529 -134.094 312.843 -131.882 300.188 -125.332C313.579 -134.21 332.258 -140.364 356.246 -120.31C363.446 -114.311 366.763 -107.846 366.391 -100.544C365.668 -86.3729 351.024 -71.2169 332.731 -56.8439V-56.8439ZM262.366 2.6801C262.037 2.3171 261.854 1.9261 261.783 1.4911C261.925 1.9601 262.161 2.3971 262.497 2.7991C262.455 2.7571 262.406 2.7251 262.366 2.6801V2.6801ZM385.297 -11.5329C388.46 -19.5459 388.319 -27.9059 381.457 -36.5149C374.079 -45.7729 364.867 -47.7659 354.753 -45.4989C368.279 -51.1349 380.247 -51.5779 388.356 -41.3559C395.599 -32.2259 394.356 -23.3679 389.507 -14.9299C388.008 -13.7839 386.598 -12.6529 385.297 -11.5329V-11.5329ZM359.678 48.0221C361.136 47.6801 362.719 47.3031 364.405 46.8951C362.881 47.2771 361.318 47.6631 359.722 48.0511C359.707 48.0421 359.693 48.0321 359.678 48.0221V48.0221ZM354.333 49.2541C355.228 49.0521 356.115 48.8491 356.995 48.6461C357.017 48.6621 357.037 48.6791 357.058 48.6951C356.185 48.9041 355.308 49.1141 354.414 49.3251C354.387 49.3011 354.36 49.2781 354.333 49.2541V49.2541ZM349.706 50.2891C350.46 50.1231 351.207 49.9571 351.953 49.7901C351.982 49.8201 352.007 49.8511 352.038 49.8801C351.294 50.0531 350.546 50.2251 349.793 50.3971C349.766 50.3611 349.734 50.3251 349.706 50.2891V50.2891ZM345.967 51.2621C345.947 51.2121 345.928 51.1621 345.909 51.1121C346.479 50.9901 347.046 50.8671 347.613 50.7441C347.641 50.7881 347.667 50.8311 347.697 50.8741C347.122 51.0041 346.546 51.1331 345.967 51.2621V51.2621ZM241.766 61.2781C248.626 63.4901 255.717 65.7771 263.128 65.7761H263.248H263.249C282.102 65.7111 316.178 59.8971 344.854 53.5581C344.876 53.5961 344.904 53.6331 344.926 53.6711C315.49 60.4381 279.038 66.9611 259.52 67.1301C259.436 67.1311 259.353 67.1311 259.27 67.1311C251.946 67.1311 245.1 64.3531 238.477 61.6651C234.316 59.9761 230.085 58.2631 225.736 57.2601C231.016 57.8211 236.302 59.5161 241.766 61.2781V61.2781ZM143.171 53.4061C152.732 54.0181 161.137 56.1051 169.266 58.1241C171.339 58.6391 173.393 59.1461 175.442 59.6241C172.826 59.1181 170.203 58.5531 167.548 57.9781C159.274 56.1861 150.718 54.3321 140.846 53.8831C139.38 53.8161 138.046 53.8831 136.818 54.0381C138.604 53.5361 140.688 53.2471 143.171 53.4061V53.4061ZM76.7645 22.9131C85.7045 27.5331 94.1475 31.8971 100.347 37.0261C105.16 41.0371 108.938 42.0511 111.975 42.8661C115.956 43.9351 118.587 44.6401 121.277 51.9421C122.723 55.8651 123.967 57.6991 125.57 58.2731C125.622 58.2921 125.672 58.2951 125.723 58.3111C124.862 58.7121 124.169 58.9021 123.618 58.6981C122.635 58.3371 121.573 56.6321 120.369 53.4851C117.226 45.2681 113.703 44.3511 109.241 43.1901C106.114 42.3761 102.57 41.4551 98.0385 37.6761C92.0405 32.6741 83.8115 27.7641 75.0985 22.5661C72.7795 21.1821 70.4455 19.7881 68.1385 18.3841C70.9835 19.9241 73.8855 21.4251 76.7645 22.9131V22.9131ZM56.4125 -16.5959C55.0585 -17.2919 53.7115 -17.9299 52.4175 -18.3629C52.4275 -18.8699 52.4435 -19.3839 52.4685 -19.9069C53.7615 -19.5039 55.2345 -18.7609 56.7545 -17.8809C56.6475 -17.4209 56.5335 -16.9899 56.4125 -16.5959V-16.5959ZM60.7975 -15.3779C60.9345 -15.2899 61.0695 -15.2049 61.2045 -15.1179C61.0755 -14.8199 60.9345 -14.5499 60.7865 -14.3039C60.6655 -14.3639 60.5465 -14.4239 60.4265 -14.4849C60.5475 -14.7689 60.6635 -15.0719 60.7755 -15.3929C60.7825 -15.3879 60.7895 -15.3829 60.7975 -15.3779V-15.3779ZM64.8185 -18.5469C64.7095 -18.1499 64.6135 -17.7429 64.5305 -17.3239C64.5225 -17.2849 64.5125 -17.2499 64.5045 -17.2109C64.3355 -17.3259 64.1695 -17.4389 64.0025 -17.5539C64.1005 -18.0179 64.2185 -18.4639 64.3495 -18.8989C64.5055 -18.7809 64.6625 -18.6639 64.8185 -18.5469V-18.5469ZM84.7925 -13.7209C84.7855 -13.6819 84.7755 -13.6539 84.7675 -13.6159C84.6015 -13.7339 84.4385 -13.8479 84.2695 -13.9709C84.9455 -17.1679 86.6135 -19.4829 88.9985 -21.1819C86.9055 -19.3439 85.4225 -16.9289 84.7925 -13.7209V-13.7209ZM185.758 -167.076C179.28 -168.703 167.215 -173.284 153.247 -178.588C126.304 -188.818 93.0745 -201.436 78.5435 -201.033C78.0165 -202.303 77.5215 -203.537 77.0475 -204.746C90.4005 -206.237 126.018 -192.648 154.698 -181.692C169.047 -176.21 181.44 -171.476 188.068 -169.812C190.13 -169.295 191.997 -169.652 193.767 -170.669C191.156 -167.876 188.591 -166.365 185.758 -167.076V-167.076ZM353.292 -91.7829C353.615 -98.9209 350.247 -105.494 343.288 -111.317C323.114 -128.285 307.161 -126.173 295.142 -119.973C307.852 -128.468 325.781 -134.625 349.126 -115.052C355.997 -109.315 359.176 -103.154 358.844 -96.2189C358.222 -83.2549 345.152 -69.3419 328.664 -56.0879C342.499 -67.8649 352.76 -79.9729 353.292 -91.7829V-91.7829ZM381.09 -7.4819C381.015 -7.3989 380.941 -7.3149 380.867 -7.2319C384.339 -15.6739 384.419 -24.4739 377.226 -33.4799C371.242 -40.9729 364.302 -43.9129 356.807 -43.7959C365.611 -45.3229 373.552 -43.2249 379.893 -35.2689C387.459 -25.7739 386.053 -16.4219 381.09 -7.4819V-7.4819ZM348.049 47.1111C347.425 45.1501 347.454 43.0731 347.972 40.8991C347.987 42.0181 348.15 43.1211 348.483 44.2071C348.899 45.5631 349.571 46.8491 350.484 48.0791C349.865 48.2191 349.244 48.3571 348.622 48.4961C348.399 48.0411 348.199 47.5811 348.049 47.1111V47.1111ZM345.364 49.2161C345.073 47.5831 345.175 45.8731 345.584 44.0981C345.592 45.3251 345.766 46.5331 346.144 47.7181C346.276 48.1321 346.433 48.5411 346.612 48.9431C346.197 49.0351 345.78 49.1261 345.364 49.2161V49.2161ZM145.589 50.9331C155.007 51.7111 163.346 54.0471 171.41 56.3061C173.991 57.0291 176.544 57.7421 179.092 58.3941C175.995 57.7321 172.893 56.9641 169.748 56.1831C161.534 54.1431 153.038 52.0331 143.298 51.4101C141.815 51.3151 140.46 51.3731 139.212 51.5271C140.997 51.0091 143.087 50.7251 145.589 50.9331V50.9331ZM79.8025 21.8801C88.4995 25.6401 97.4945 29.5281 103.94 34.8461C108.687 38.7811 112.302 39.7861 115.207 40.5931C119.097 41.6741 121.445 42.3261 124.055 49.6871C125.441 53.5941 126.643 55.4161 128.199 55.9671C127.393 56.3721 126.747 56.5701 126.244 56.3901C125.317 56.0581 124.306 54.3771 123.154 51.2511C120.106 42.9771 116.747 42.0761 112.494 40.9341C109.497 40.1301 106.102 39.2191 101.625 35.4881C95.2565 30.2191 86.3225 25.6021 77.6825 21.1361C76.9615 20.7641 76.2405 20.3911 75.5175 20.0161C76.9455 20.6451 78.3765 21.2641 79.8025 21.8801V21.8801ZM45.5675 -9.7159C45.7125 -9.7559 45.8595 -9.7919 46.0085 -9.8199C45.5475 -5.2069 46.3805 -0.857901 50.1085 3.7241C49.5755 3.2021 49.0585 2.6751 48.5735 2.1381C44.3745 -2.5069 44.2235 -5.7859 45.5675 -9.7159V-9.7159ZM55.2255 -13.9229C55.0665 -13.9849 54.9065 -14.0459 54.7465 -14.1079C53.9915 -14.4039 53.2305 -14.6999 52.4725 -14.9629C52.4505 -15.3839 52.4305 -15.8069 52.4195 -16.2389C53.4585 -15.8379 54.5625 -15.3019 55.6815 -14.7229C55.5355 -14.4309 55.3835 -14.1599 55.2255 -13.9229V-13.9229ZM57.2375 -13.1879C57.1985 -13.2019 57.1605 -13.2129 57.1215 -13.2269C57.2265 -13.4029 57.3235 -13.6079 57.4235 -13.8029C57.5095 -13.7569 57.5955 -13.7119 57.6815 -13.6659C57.5375 -13.4879 57.3905 -13.3289 57.2375 -13.1879V-13.1879ZM63.1925 -13.8619C63.0595 -13.6819 62.9185 -13.5229 62.7725 -13.3809C62.7175 -13.4039 62.6625 -13.4289 62.6075 -13.4519C62.7115 -13.6369 62.8085 -13.8389 62.9045 -14.0409C63.0005 -13.9809 63.0965 -13.9219 63.1925 -13.8619V-13.8619ZM66.4915 -16.9329C66.5115 -17.0339 66.5385 -17.1289 66.5605 -17.2289C67.4785 -16.5359 68.3875 -15.8519 69.2805 -15.1959C69.1775 -14.8819 69.0615 -14.5999 68.9355 -14.3409C68.0675 -14.8559 67.1745 -15.4249 66.2785 -16.0179C66.3545 -16.3119 66.4275 -16.6129 66.4915 -16.9329V-16.9329ZM91.3865 -20.5259C89.3655 -18.7389 87.9385 -16.3859 87.3275 -13.2679C87.2325 -12.7839 87.1055 -12.4329 86.9695 -12.1629C86.8195 -12.2529 86.6725 -12.3379 86.5185 -12.4349C86.6095 -12.7179 86.6925 -13.0129 86.7555 -13.3349C87.3855 -16.5419 89.0255 -18.8469 91.3865 -20.5259V-20.5259ZM184.367 -164.744C177.903 -166.367 165.976 -170.881 152.166 -176.108C126.359 -185.876 94.6635 -197.874 79.7675 -198.144C79.6355 -198.45 79.5085 -198.75 79.3795 -199.053C93.8035 -199.019 126.199 -186.718 152.537 -176.718C166.564 -171.392 178.679 -166.791 185.272 -165.136C186.139 -164.918 186.973 -164.853 187.782 -164.913C186.673 -164.539 185.544 -164.449 184.367 -164.744V-164.744ZM268.668 -164.107C268.534 -183.075 264.968 -199.838 250.311 -203.386C236.082 -206.828 225.719 -203.633 217.707 -197.87C225.739 -204.837 236.284 -209.05 251.644 -205.4C266.096 -201.968 268.979 -183.984 268.668 -164.107V-164.107ZM268.803 -102.966C267.518 -104.452 266.816 -107.167 266.493 -110.712C266.943 -107.607 267.767 -105.202 269.125 -103.662C269.675 -103.039 270.285 -102.674 270.946 -102.512C270.035 -102.248 269.326 -102.364 268.803 -102.966V-102.966ZM349.524 -89.6169C349.828 -96.5779 346.533 -102.996 339.734 -108.69C325.651 -120.554 313.705 -122.948 303.772 -121.181C314.12 -124.026 326.825 -122.551 342.003 -109.785C348.551 -104.306 351.591 -98.4469 351.294 -91.8729C351.061 -86.7009 348.696 -81.3559 344.883 -75.9619C347.651 -80.5349 349.327 -85.0999 349.524 -89.6169V-89.6169ZM372.992 -30.4369C367.918 -36.7759 361.904 -40.3539 355.114 -41.0739C354.094 -41.1819 353.063 -41.2219 352.024 -41.2049C360.86 -42.7889 368.972 -40.6099 375.663 -32.2319C383.651 -22.2309 381.806 -12.3019 376.41 -2.8219C380.204 -11.7279 380.538 -21.0079 372.992 -30.4369V-30.4369ZM65.3305 -12.5849C65.1635 -12.6129 64.9945 -12.6479 64.8205 -12.6889C64.8515 -12.7329 64.8805 -12.7829 64.9125 -12.8279C65.0515 -12.7469 65.1925 -12.6639 65.3305 -12.5849V-12.5849ZM73.0535 -12.5779C72.9905 -12.5419 72.9275 -12.5019 72.8615 -12.4739C72.8445 -12.4669 72.8265 -12.4649 72.8095 -12.4579C72.1525 -12.6749 71.4415 -12.9859 70.6935 -13.3679C70.7895 -13.5619 70.8785 -13.7709 70.9645 -13.9859C71.6745 -13.4859 72.3715 -13.0149 73.0535 -12.5779V-12.5779ZM93.7495 -19.8519C91.8125 -18.1149 90.4475 -15.8299 89.8575 -12.8129C89.6345 -11.6719 89.2245 -11.2809 88.9545 -11.1269C88.8815 -11.1579 88.8095 -11.1889 88.7355 -11.2219C88.9775 -11.6959 89.1645 -12.2469 89.2895 -12.8829C89.8985 -15.9879 91.4755 -18.2249 93.7495 -19.8519V-19.8519ZM182.968 -162.405C176.522 -164.025 164.738 -168.47 151.092 -173.618C126.404 -182.932 96.2225 -194.312 81.0595 -195.19C80.9215 -195.501 80.7865 -195.81 80.6505 -196.118C95.4185 -195.441 126.268 -183.772 151.458 -174.237C165.327 -168.988 177.303 -164.455 183.88 -162.804C184.82 -162.568 185.718 -162.515 186.591 -162.593C185.417 -162.189 184.22 -162.092 182.968 -162.405V-162.405ZM266.655 -160.052C266.544 -178.96 263.09 -195.819 248.506 -199.416C234.311 -202.919 223.976 -199.735 215.98 -194.033C223.999 -200.935 234.506 -205.154 249.84 -201.441C264.218 -197.962 266.983 -179.862 266.655 -160.052V-160.052ZM266.976 -100.939C265.676 -102.47 264.981 -105.28 264.67 -108.936C265.108 -105.734 265.919 -103.243 267.291 -101.658C267.867 -100.994 268.503 -100.614 269.194 -100.449C268.251 -100.174 267.519 -100.299 266.976 -100.939V-100.939ZM345.747 -87.4399C346.035 -94.2239 342.812 -100.488 336.171 -106.056C322.311 -117.753 310.604 -120.103 300.902 -118.375C311.01 -121.186 323.475 -119.773 338.447 -107.159C344.835 -101.809 347.805 -96.0989 347.525 -89.7049C347.304 -84.6599 344.981 -79.4399 341.243 -74.1679C343.932 -78.6149 345.561 -83.0509 345.747 -87.4399V-87.4399ZM259.863 4.41311C259.224 3.75711 258.909 3.02511 258.872 2.20111C259.013 3.06011 259.384 3.84611 260.01 4.54411C259.962 4.49811 259.91 4.46011 259.863 4.41311V4.41311ZM354.904 -39.0849C361.231 -38.4149 366.636 -35.1769 371.431 -29.1869C379.641 -18.9289 377.647 -8.64989 372.157 1.17011C376.075 -8.07789 376.541 -17.6989 368.763 -27.3969C363.365 -34.1299 357.091 -37.8899 350.119 -38.5729C349.154 -38.6669 348.184 -38.7009 347.21 -38.6849C349.839 -39.1899 352.411 -39.3479 354.904 -39.0849V-39.0849ZM258.195 5.5791C257.34 4.7341 256.929 3.7951 256.896 2.7361C257.034 3.8341 257.519 4.8271 258.34 5.7061C258.292 5.6611 258.242 5.6251 258.195 5.5791V5.5791ZM265.451 -99.6449C266.046 -98.9439 266.705 -98.5479 267.419 -98.3769C266.46 -98.1039 265.714 -98.2449 265.154 -98.9169C263.919 -100.401 263.243 -103.07 262.916 -106.514C263.361 -103.513 264.155 -101.172 265.451 -99.6449V-99.6449ZM264.64 -156.599C264.486 -175.202 261.066 -191.843 246.709 -195.454C232.564 -199.012 222.258 -195.856 214.279 -190.233C222.287 -197.043 232.754 -201.24 248.028 -197.475C262.184 -193.983 264.918 -176.1 264.64 -156.599V-156.599ZM81.9835 -193.128C97.0245 -191.878 126.326 -180.824 150.386 -171.747C164.089 -166.577 175.923 -162.113 182.482 -160.466C183.494 -160.211 184.463 -160.172 185.409 -160.281C184.165 -159.844 182.899 -159.74 181.575 -160.071C175.141 -161.687 163.495 -166.065 150.007 -171.136C126.429 -179.999 97.7505 -190.776 82.4125 -192.185C82.2685 -192.5 82.1245 -192.815 81.9835 -193.128V-193.128ZM150.543 -52.7279C153.457 -44.8769 154.884 -38.7759 154.137 -35.2469C153.096 -30.3269 149.534 -27.7109 144.561 -26.3079C149.028 -28.0509 152.3 -30.9629 153.438 -35.9009C154.267 -39.4969 153.116 -45.3059 150.543 -52.7279V-52.7279ZM96.1775 -19.2279C94.2945 -17.5349 92.9675 -15.3079 92.3935 -12.3649C92.1265 -10.9999 91.5695 -10.8079 91.3855 -10.7449C91.3375 -10.7279 91.2755 -10.7309 91.2245 -10.7189C91.4905 -11.1959 91.6905 -11.7659 91.8205 -12.4299C92.4125 -15.4639 93.9525 -17.6469 96.1775 -19.2279V-19.2279ZM332.617 -103.425C318.996 -114.94 307.546 -117.248 298.084 -115.576C307.942 -118.329 320.145 -116.964 334.884 -104.526C341.113 -99.3029 344.012 -93.7419 343.748 -87.5249C343.525 -82.2489 341.03 -76.8409 337.001 -71.3939C339.977 -76.0409 341.788 -80.6809 341.977 -85.2649C342.248 -91.8729 339.099 -97.9829 332.617 -103.425V-103.425ZM148.062 -53.7599C150.923 -45.9349 152.296 -39.8549 151.489 -36.3509C150.362 -31.4589 146.718 -28.8459 141.68 -27.4159C146.211 -29.1729 149.564 -32.0739 150.788 -36.9749C151.683 -40.5539 150.584 -46.3529 148.062 -53.7599V-53.7599ZM216.486 55.0961C201.889 59.5351 189.476 55.2681 176.334 50.7481C168.306 47.9861 160.004 45.1311 150.66 44.0001C143.845 43.1701 139.772 46.0861 137.073 48.0111C135.815 48.9081 134.725 49.6771 134.132 49.4861C133.615 49.3161 132.74 48.3221 131.507 44.5551C128.856 36.4481 126.508 35.4051 122.247 34.1291C119.771 33.3881 116.688 32.4651 112.389 28.9411C105.286 23.1171 96.0935 20.8131 87.2045 18.5841C77.2675 16.0921 67.8815 13.7381 61.1325 6.90611C58.7265 4.47011 54.5495 -0.9219 53.0025 -10.0649C53.2085 -10.1139 53.4145 -10.1739 53.6185 -10.2429C54.5705 -10.1769 55.5225 -10.2219 56.4265 -10.4919C57.3565 -10.3809 58.2595 -10.4109 59.1215 -10.6359C60.5265 -10.4119 61.8645 -10.4849 63.0615 -11.1249C65.0135 -10.4399 66.8155 -10.2219 68.3685 -10.9559C68.4145 -10.9779 68.4555 -11.0079 68.5005 -11.0309C70.0675 -10.4139 71.5125 -10.1339 72.7885 -10.3839C74.0785 -10.0469 75.2555 -10.0179 76.2805 -10.4359C76.3965 -10.4829 76.5035 -10.5449 76.6135 -10.6029C78.2115 -9.89589 79.6565 -9.5669 80.8855 -9.7909C81.8555 -9.5019 82.7465 -9.4089 83.5455 -9.5539C84.5375 -9.2459 85.4365 -9.15489 86.2395 -9.30489C87.2325 -8.98689 88.1285 -8.88789 88.9205 -9.03789C90.1065 -8.64789 91.1595 -8.5499 92.0385 -8.8539C93.2535 -9.2739 94.0335 -10.3259 94.3565 -11.9819C96.3965 -22.4399 109.879 -22.5339 124.154 -22.6339C138.609 -22.7349 153.555 -22.8399 156.094 -34.8329C158.763 -47.4439 137.54 -86.8949 115.072 -128.663C103.486 -150.2 91.7115 -172.091 83.3745 -190.087C98.5665 -188.327 126.366 -177.886 149.304 -169.264C162.847 -164.172 174.544 -159.775 181.088 -158.132C187.9 -156.418 193.066 -163.247 199.042 -171.151C208.729 -183.964 220.783 -199.913 246.221 -193.514C265.456 -188.677 263.295 -156.856 261.559 -131.288C260.509 -115.82 259.602 -102.462 263.617 -97.6379C266.494 -94.1789 270.719 -97.5029 276.067 -101.716C287.502 -110.725 304.783 -124.336 331.329 -101.896C337.398 -96.7999 340.227 -91.3869 339.979 -85.3469C339.249 -67.5919 311.923 -48.2349 287.814 -31.1579C268.842 -17.7189 252.456 -6.1119 251.83 2.7821C251.671 5.0431 252.512 7.06011 254.329 8.77511C257.154 11.4441 260.304 12.5981 263.719 12.5981C273.87 12.5961 286.337 2.39311 299.392 -8.58289C300.403 -9.40489 301.415 -10.2319 302.433 -11.0619C302.634 -11.2269 302.837 -11.3919 303.038 -11.5569C303.382 -11.8299 303.726 -12.1019 304.071 -12.3759C305.033 -13.1389 305.999 -13.9069 306.969 -14.6749C309.485 -16.6199 312.03 -18.5819 314.59 -20.5199C319.431 -24.0669 324.338 -27.6039 329.226 -30.9269C329.413 -31.0539 329.601 -31.1789 329.788 -31.3049C336.684 -35.0539 343.451 -37.2179 349.923 -36.5819C356.43 -35.9449 362.082 -32.5309 367.203 -26.1459C380.398 -9.69289 367.731 7.06111 356.555 21.8431C349.007 31.8271 341.854 41.2901 343.407 49.6431C315.22 55.7301 285.641 60.4221 267.163 60.4221H266.965C260.198 60.4101 253.29 58.7051 246.61 57.0571C236.682 54.6071 226.416 52.0731 216.486 55.0961V55.0961ZM144.082 46.4841C145.84 45.9451 147.913 45.6821 150.419 45.9851C159.553 47.0911 167.753 49.9121 175.684 52.6391C179.158 53.8341 182.581 55.0071 186.011 56.0181C182.069 55.0401 178.14 53.8161 174.144 52.5701C166.051 50.0451 157.683 47.4351 148.206 46.4721C146.704 46.3181 145.337 46.3431 144.082 46.4841V46.4841ZM148.003 48.4611C157.281 49.4041 165.55 51.9841 173.548 54.4791C176.567 55.4211 179.546 56.3451 182.526 57.1691C179.017 56.3541 175.51 55.3771 171.95 54.3801C163.795 52.0961 155.363 49.7331 145.753 48.9391C144.265 48.8171 142.91 48.8581 141.661 49.0051C143.431 48.4801 145.508 48.2081 148.003 48.4611V48.4611ZM83.1545 21.1211C91.8795 24.1211 100.904 27.2221 107.53 32.6691C112.209 36.5271 115.661 37.5231 118.433 38.3251C122.208 39.4151 124.288 40.0161 126.83 47.4331C128.117 51.2281 129.251 53.0351 130.704 53.6181C129.951 54.0251 129.331 54.2441 128.872 54.0861C128.001 53.7821 127.041 52.1241 125.94 49.0181C122.983 40.6781 119.788 39.7901 115.744 38.6661C112.879 37.8701 109.634 36.9681 105.214 33.3051C99.1005 28.2611 90.9185 24.5251 82.7955 20.9981C82.9155 21.0391 83.0355 21.0801 83.1545 21.1211V21.1211ZM48.0405 -9.9339C48.2005 -9.9289 48.3615 -9.9239 48.5245 -9.9169C48.7905 -4.7119 50.2685 0.356101 53.9715 4.9551C53.5545 4.5531 53.1475 4.1451 52.7575 3.7271C48.4465 -0.902899 47.5155 -5.1869 48.0405 -9.9339V-9.9339ZM56.9445 5.31811C52.5715 0.760108 50.7925 -4.21589 50.5165 -9.83189C50.6825 -9.83089 50.8495 -9.83289 51.0165 -9.83589C52.2985 -2.15089 55.3565 3.06711 57.8565 6.21111C57.5485 5.91711 57.2395 5.62511 56.9445 5.31811V5.31811ZM131.492 51.7911C130.687 51.5181 129.756 49.8361 128.724 46.7881C125.842 38.3831 122.967 37.5531 118.988 36.4031C116.392 35.6531 113.162 34.7201 108.8 31.1261C103.378 26.6671 96.5395 23.7611 89.5465 21.2381C97.3115 23.2261 105.096 25.5481 111.122 30.4881C115.73 34.2661 119.026 35.2531 121.674 36.0451C125.209 37.1041 127.157 37.6861 129.607 45.1771C130.809 48.8521 131.881 50.6471 133.236 51.2621C132.504 51.6941 131.909 51.9361 131.492 51.7911V51.7911ZM145.351 -55.4769C148.331 -47.3439 149.745 -41.0419 148.849 -37.4599C147.636 -32.6059 143.922 -29.9939 138.834 -28.5349C143.411 -30.3079 146.828 -33.1959 148.137 -38.0469C149.129 -41.7189 147.99 -47.7539 145.351 -55.4769V-55.4769ZM263.242 63.7761H263.129C256.033 63.7761 249.092 61.5391 242.379 59.3741C238.174 58.0181 233.903 56.6471 229.576 55.8281C234.967 56.2441 240.46 57.5991 246.13 58.9981C252.926 60.6751 259.953 62.4091 266.961 62.4221H267.135C285.114 62.4221 316.441 57.3541 343.929 51.5351C343.949 51.5901 343.972 51.6451 343.993 51.7001C315.521 57.9781 281.858 63.7121 263.242 63.7761V63.7761ZM350.821 40.7201C351.493 42.9951 352.891 45.0891 355.024 47.0371C354.24 47.2191 353.454 47.4011 352.664 47.5821C351.581 46.3181 350.819 45.0011 350.395 43.6201C349.82 41.7471 349.861 39.7711 350.369 37.7101C350.387 38.7261 350.528 39.7301 350.821 40.7201V40.7201ZM272.804 -107.686C273.812 -106.588 275.004 -106.334 276.384 -106.665C273.528 -104.595 271.68 -103.79 270.625 -104.985C266.868 -109.244 268.017 -123.803 269.234 -139.218C271.447 -167.233 274.2 -202.099 252.107 -207.347C232.647 -211.967 220.382 -204.33 211.515 -194.504C220.384 -206.868 232.974 -218.438 255.265 -213.333C276.488 -208.473 273.462 -173.153 271.032 -144.772C269.494 -126.808 268.278 -112.619 272.804 -107.686V-107.686ZM142.8 -56.7389C145.781 -48.5249 147.175 -42.1569 146.205 -38.5679C144.908 -33.7609 141.138 -31.1499 136.017 -29.6579C140.622 -31.4479 144.09 -34.3229 145.483 -39.1119C146.557 -42.8069 145.447 -48.9119 142.8 -56.7389V-56.7389ZM59.0335 -16.4989C58.9135 -16.1049 58.7885 -15.7419 58.6565 -15.4129C58.5475 -15.4709 58.4395 -15.5279 58.3315 -15.5849C58.2875 -15.6089 58.2435 -15.6329 58.1985 -15.6569C58.3205 -16.0189 58.4405 -16.3929 58.5495 -16.8019C58.7105 -16.7019 58.8715 -16.6009 59.0335 -16.4989V-16.4989ZM42.0535 -4.74889C42.3985 -5.20789 42.6475 -5.76489 42.8505 -6.36589C42.7005 -3.57089 43.6095 -0.670891 46.4445 2.71611C45.7185 2.00011 45.0215 1.28011 44.3865 0.55511C42.9125 -1.12689 42.0515 -2.48989 41.6605 -3.69589C41.8205 -4.01789 41.9485 -4.37189 42.0535 -4.74889V-4.74889ZM349.127 52.6911C348.418 52.8591 347.708 53.0261 346.99 53.1931C346.968 53.1611 346.947 53.1291 346.926 53.0971C347.64 52.9371 348.352 52.7771 349.058 52.6171C349.08 52.6421 349.105 52.6671 349.127 52.6911V52.6911ZM355.516 33.7841C356.608 37.7781 360.03 41.2631 366.009 44.3911C363.205 45.0901 360.348 45.7831 357.452 46.4671C354.967 44.5041 353.404 42.4041 352.739 40.1531C351.69 36.6021 352.913 32.6951 355.397 28.5451C355.04 30.3211 355.047 32.0681 355.516 33.7841V33.7841ZM274.818 -150.163C273.1 -131.449 271.743 -116.667 276.482 -111.701C277.434 -110.705 278.566 -110.473 279.876 -110.777C277.275 -108.891 275.288 -107.936 274.278 -109.038C270.346 -113.323 271.647 -128.517 273.025 -144.602C275.521 -173.754 278.628 -210.035 255.712 -215.282C236.356 -219.716 224.056 -212.3 215.183 -202.367C224.049 -214.963 236.713 -226.16 258.883 -221.257C280.898 -216.391 277.527 -179.669 274.818 -150.163V-150.163ZM109.198 -28.2559C122.683 -29.4309 136.628 -30.6459 140.175 -41.2539C144.031 -52.7829 125.895 -88.3529 106.695 -126.012C95.1365 -148.681 83.3485 -171.809 77.0625 -188.624C84.0805 -171.406 95.6835 -149.091 107.663 -126.058C126.904 -89.0609 146.8 -50.8029 143.563 -39.6709C140.739 -29.9609 127.775 -29.1819 114.05 -28.3559C100.07 -27.5159 85.6275 -26.6469 82.5245 -15.2869C81.6885 -15.9359 80.8335 -16.6219 79.9705 -17.3329C83.6865 -26.0279 96.1065 -27.1159 109.198 -28.2559V-28.2559ZM118.373 63.3191C117.264 62.8941 116.128 61.1881 114.798 57.9501C111.471 49.8511 107.43 48.8621 102.751 47.7171C99.3525 46.8851 95.5005 45.9421 90.8645 42.0431C86.1275 38.0591 79.5385 33.1661 72.5625 27.9851C60.2985 18.8771 46.5905 8.68911 38.6055 0.282112C39.4365 -0.0738876 40.0655 -0.646888 40.5355 -1.38489C41.0835 -0.385888 41.8455 0.690112 42.8825 1.87411C49.8625 9.83811 62.1705 17.1821 74.0745 24.2831C82.7175 29.4401 90.8805 34.3111 96.7575 39.2121C101.633 43.2771 105.572 44.3021 108.737 45.1261C112.946 46.2211 115.726 46.9441 118.501 54.2001C120.002 58.1251 121.286 59.9721 122.928 60.5761C124.672 61.2131 126.329 60.3031 128.43 59.1501C131.149 57.6581 134.862 55.6081 140.756 55.8811C150.459 56.3221 158.931 58.1581 167.125 59.9331C175.539 61.7551 183.657 63.5021 192.242 63.4761C182.353 64.4851 173.269 63.1011 163.126 61.5431C154.74 60.2551 146.068 58.9241 135.94 58.8281C135.853 58.8281 135.767 58.8271 135.682 58.8271C129.607 58.8271 125.655 60.7261 122.758 62.1171C120.819 63.0481 119.42 63.7181 118.373 63.3191V63.3191ZM348.39 54.9741L348.349 54.9301C349.132 54.7461 349.913 54.5631 350.685 54.3791C350.731 54.3691 350.779 54.3571 350.824 54.3461C350.834 54.3551 350.843 54.3641 350.853 54.3731C350.043 54.5721 349.218 54.7721 348.39 54.9741V54.9741ZM360.227 26.9171C361.607 32.3811 367.621 36.9661 378.871 41.0411C375.693 41.9061 372.4 42.7731 369.016 43.6341C362.313 40.5211 358.492 37.0851 357.445 33.2561C356.549 29.9811 357.711 26.4241 360.08 22.6651C359.843 24.0981 359.872 25.5161 360.227 26.9171V26.9171ZM135.145 -60.6319C138.146 -52.1129 139.49 -45.5099 138.279 -41.8889C136.694 -37.1479 132.655 -34.5289 127.314 -32.9409C132.122 -34.7859 135.852 -37.6359 137.527 -42.3229C138.872 -46.0879 137.82 -52.4599 135.145 -60.6319V-60.6319ZM362.585 23.5011C364.065 29.5951 371.469 34.6401 385.678 39.1371C384.559 39.4591 383.428 39.7811 382.273 40.1041C370.068 36.0651 363.462 31.5621 362.165 26.4271C361.787 24.9261 361.873 23.3681 362.327 21.7641C362.363 22.3431 362.445 22.9221 362.585 23.5011V23.5011ZM280.489 -158.247C278.498 -138.403 276.927 -122.729 281.995 -117.727C282.866 -116.867 283.88 -116.631 285.059 -116.874C282.566 -115.055 280.685 -114.146 279.75 -115.105C275.547 -119.422 277.078 -135.571 278.698 -152.669C281.622 -183.526 285.259 -221.928 261.113 -227.175C241.779 -231.375 229.381 -224.16 220.466 -214.045C229.365 -226.972 242.178 -237.794 264.305 -233.145C287.51 -228.269 283.617 -189.444 280.489 -158.247V-158.247ZM102.677 -124.383C92.7755 -144.485 82.6755 -164.99 77.0995 -180.289C83.3365 -164.688 93.2965 -144.941 103.562 -124.588C121.184 -89.6509 139.406 -53.5239 135.644 -42.9959C132.36 -33.8039 119.809 -32.5389 106.522 -31.1999C94.1465 -29.9529 81.4175 -28.6629 76.4595 -20.2909C75.7585 -20.8929 75.0685 -21.4899 74.3925 -22.0739C79.5725 -28.2869 90.4225 -29.6839 101.778 -31.1399C114.761 -32.8049 128.188 -34.5259 132.216 -44.4619C136.654 -55.4039 120.15 -88.9099 102.677 -124.383V-124.383ZM367.298 16.7691C368.899 23.8931 379.115 29.6821 399.378 34.9221C396.259 35.9601 392.843 37.0281 389.196 38.1091C374.008 33.6611 365.908 28.7091 364.529 23.0291C363.858 20.2661 364.797 17.3221 366.775 14.2391C366.886 14.1171 366.999 13.9941 367.113 13.8721C367.03 14.8381 367.081 15.8031 367.298 16.7691V16.7691ZM100.045 -123.185C91.1835 -141.666 82.1565 -160.503 77.0605 -174.803C82.7755 -160.267 91.6925 -142.156 100.882 -123.499C117.392 -89.9829 134.463 -55.3249 130.363 -45.2139C126.774 -36.3609 114.508 -34.7889 101.523 -33.1239C90.2135 -31.6729 78.6065 -30.1829 72.8755 -23.3839C72.2665 -23.9099 71.6625 -24.4289 71.0685 -24.9369C76.7395 -29.9519 86.5905 -31.4929 96.8525 -33.0939C109.493 -35.0659 122.562 -37.1049 126.901 -46.5959C131.717 -57.1319 116.333 -89.2159 100.045 -123.185V-123.185ZM105.584 75.0251C104.067 74.5401 102.613 72.7181 100.872 69.1191C97.0825 61.2891 91.9785 60.1941 86.5745 59.0361C82.2665 58.1131 77.8125 57.1591 72.9285 52.9651C60.5905 42.3731 30.3015 9.37911 18.0955 -6.45189C20.1665 -5.26489 22.2485 -4.12289 24.2735 -3.11089C36.4535 11.6621 65.7705 39.0151 78.8085 50.1171C83.9715 54.5131 88.5555 55.5461 92.5995 56.4571C97.5345 57.5681 101.432 58.4461 104.625 65.4761C108.431 73.8571 111.196 73.2101 116.596 71.0831C119.538 69.9241 123.201 68.4821 128.672 68.2451C139.052 67.8021 147.827 68.3231 156.309 68.8271C163.388 69.2481 169.948 69.6311 176.62 69.4171C168.403 70.2751 160.526 70.3031 151.855 70.3301C143.257 70.3561 134.368 70.3841 123.681 71.1971C118.219 71.6171 114.286 72.9801 111.413 73.9751C108.872 74.8551 107.037 75.4881 105.584 75.0251V75.0251ZM315.816 79.6541C284.852 87.6991 245.076 96.2821 226.014 97.3221C217.51 97.7911 213.121 90.2041 208.48 82.1771C204.552 75.3821 200.507 68.4141 193.713 67.3291C193.948 67.2771 194.179 67.2331 194.415 67.1791C202.824 65.2571 207.876 71.8441 213.224 78.8121C218.44 85.6071 223.827 92.6271 232.773 92.6271C233.029 92.6271 233.288 92.6211 233.55 92.6091C253.099 91.7401 292.929 83.4361 323.731 75.5921C338.325 71.8761 351.279 68.1961 361.677 64.8221C362.241 65.0221 362.828 65.2191 363.418 65.4141C353.462 69.0771 338.08 73.8691 315.816 79.6541V79.6541ZM369.673 13.3691C371.274 20.7991 382.519 26.8381 405.061 32.3751C405.382 32.4551 405.667 32.5381 405.934 32.6221C404.935 32.9941 403.892 33.3711 402.801 33.7531C402.555 33.6781 402.312 33.6021 402.04 33.5341C381.428 28.4211 370.702 22.7931 369.249 16.3301C368.946 14.9771 369.056 13.5821 369.504 12.1511C369.536 12.5571 369.585 12.9621 369.673 13.3691V13.3691ZM122.526 -67.1109C125.526 -58.0869 126.753 -51.0829 125.082 -47.4279C122.95 -42.7629 118.381 -40.0999 112.61 -38.3139C117.814 -40.2819 122.044 -43.1199 124.247 -47.6679C126.121 -51.5359 125.214 -58.3529 122.526 -67.1109V-67.1109ZM34.5225 -7.02689C36.3205 -6.84189 38.0925 -6.83589 39.6985 -7.15389C39.6355 -6.94589 39.5855 -6.73489 39.5425 -6.52189C38.1285 -6.01989 36.2365 -6.09289 34.1205 -6.51689C34.1935 -6.69489 34.3265 -6.86489 34.5225 -7.02689V-7.02689ZM119.914 -68.7399C122.984 -59.4609 124.241 -52.2429 122.447 -48.5399C120.203 -43.9049 115.55 -41.2279 109.716 -39.3959C114.973 -41.3929 119.28 -44.2319 121.587 -48.7339C123.604 -52.6669 122.676 -59.7079 119.914 -68.7399V-68.7399ZM374.406 6.61609C375.894 14.1371 387.858 20.3581 412.058 26.1941C414.72 26.8371 415.601 27.6031 415.547 28.0631C415.53 28.2091 415.464 28.3671 415.377 28.5311C414.77 28.8611 414.087 29.2031 413.353 29.5511C412.348 28.1521 409.972 27.5701 409.032 27.3401C386.809 21.9331 375.35 16.1241 373.999 9.58109C373.803 8.63209 373.829 7.66409 374.037 6.67909C374.146 6.56809 374.255 6.45609 374.365 6.34509C374.38 6.43509 374.388 6.52509 374.406 6.61609V6.61609ZM428.016 -69.9499C413.791 -88.3499 359.703 -54.0589 316.245 -26.5059C303.5 -18.4249 291.462 -10.7929 282.584 -5.9529C270.29 0.749104 267.875 -0.0748905 267.409 -0.740891C267.32 -0.867891 267.228 -1.0619 267.303 -1.4399C268.164 -5.7569 283.971 -15.8059 302.273 -27.4419C340.515 -51.7529 392.889 -85.0499 394.802 -115.47C395.38 -124.647 391.221 -132.989 382.441 -140.264C345.173 -171.142 316.767 -146.966 301.506 -133.978C296.667 -129.859 292.097 -125.976 290.7 -127.245C285.931 -131.588 287.924 -149.667 290.035 -168.808C293.813 -203.077 298.515 -245.725 271.926 -250.965C237.028 -257.843 223.39 -228.901 214.37 -209.749C213.491 -207.882 212.646 -206.089 211.823 -204.411C211.798 -204.361 211.774 -204.311 211.749 -204.262C208.129 -196.899 204.93 -191.816 201.117 -192.769C194.453 -194.443 180.897 -199.743 165.201 -205.879C131.36 -219.11 89.2455 -235.575 74.8845 -232.67C72.9425 -232.277 71.5375 -231.183 70.7085 -229.417C69.9205 -227.739 69.7185 -225.425 69.9895 -222.596C69.9525 -221.705 69.9965 -220.726 70.0945 -219.686C70.0585 -218.794 70.1065 -217.811 70.2045 -216.772C70.1685 -215.865 70.2095 -214.873 70.3135 -213.813C70.2605 -212.456 70.3685 -210.925 70.6215 -209.236C70.4655 -207.994 70.4645 -206.585 70.6185 -205.008C70.5705 -203.673 70.6655 -202.183 70.9065 -200.536C70.6955 -198.901 70.7615 -196.965 71.0735 -194.764C70.9055 -193.525 70.8975 -192.113 71.0335 -190.545C70.9915 -189.661 71.0165 -188.705 71.1005 -187.683C71.0515 -186.752 71.0795 -185.737 71.1715 -184.653C70.5795 -172.469 82.1725 -147.09 94.3615 -120.418C107.983 -90.6089 122.069 -59.7859 117.174 -50.7559C112.838 -42.7579 101.328 -40.4759 89.1405 -38.0599C80.1705 -36.2809 71.0145 -34.4619 64.6925 -30.1319C60.4725 -33.3079 56.9425 -35.2049 54.5375 -34.4209C53.3275 -34.0259 52.5205 -33.0329 52.1295 -31.4759C51.7355 -30.9829 51.4415 -30.3479 51.2405 -29.5839C50.8535 -29.0879 50.5615 -28.4549 50.3545 -27.7019C49.9715 -27.1979 49.6785 -26.5619 49.4655 -25.8109C49.0045 -25.1859 48.6605 -24.3829 48.4385 -23.4039C48.3845 -23.1699 48.3155 -22.9589 48.2565 -22.7329C47.6345 -22.1209 47.1505 -21.2859 46.8185 -20.2169C46.3255 -19.4859 45.9495 -18.5639 45.6995 -17.4469C45.6945 -17.4249 45.6865 -17.4069 45.6815 -17.3849C45.0275 -16.6709 44.5145 -15.7149 44.1425 -14.4979C42.2875 -12.4339 39.8215 -11.4079 37.5895 -10.5809C36.3825 -10.3599 35.1605 -10.2359 34.0085 -10.1189C32.7875 -9.9959 31.6915 -9.8759 30.7765 -9.6519C29.7245 -9.8689 28.7035 -10.1049 27.7575 -10.3249C24.7075 -11.0339 22.6155 -11.5099 21.4015 -11.0259C21.4005 -11.0269 21.3985 -11.0269 21.3975 -11.0279C17.3305 -12.7699 15.1215 -13.6699 13.8125 -13.6179C11.6585 -14.6079 10.3505 -15.0469 9.49253 -14.9439C7.37553 -16.0029 6.10053 -16.4499 5.27153 -16.3149C2.39853 -17.8559 1.15353 -18.1249 0.391533 -17.3579C-0.519467 -16.4409 0.386533 -14.9609 0.822533 -14.2499C9.11853 -0.689893 47.5885 49.4881 60.8585 61.0251C66.2825 65.7391 71.7145 66.8261 76.5075 67.7851C82.2065 68.9251 87.1285 69.9091 90.7485 76.7521C95.6135 85.9431 98.9665 84.9661 105.646 83.0191C108.452 82.2021 111.943 81.1841 116.581 80.6031C127.205 79.2801 136.352 78.3991 144.422 77.6231C157.469 76.3671 168.737 75.2831 181.831 72.8271C190.274 71.2421 193.649 80.2511 197.22 89.7871C200.836 99.4421 204.571 109.414 214.012 109.414C214.33 109.414 214.656 109.403 214.987 109.38C233.457 108.096 273.27 99.1061 304.533 90.7661C322.139 86.0691 338.02 81.3251 349.248 77.4071C365.636 71.6891 368.638 68.9901 369.252 67.6241C370.904 66.6581 372.079 65.7501 372.663 64.9221C375.087 63.5661 376.057 62.6091 376.455 61.9261C380.229 59.7791 380.36 58.6271 380.43 57.9781C380.436 57.9191 380.428 57.8661 380.43 57.8091C386.498 54.9711 387.665 53.2561 387.8 52.0201C387.804 51.9841 387.797 51.9521 387.8 51.9171C391.225 50.2561 393.582 48.7151 394.611 47.3491C397.134 45.8651 398.687 44.4581 398.887 43.1921C402.154 41.6101 404.548 40.0741 405.657 38.6491C407.34 37.6521 408.603 36.6811 409.338 35.7521C411.013 34.7601 412.274 33.7911 413.023 32.8601C414.698 31.8671 415.963 30.8961 416.725 29.9601C419.44 28.3491 421.105 26.7861 421.278 25.3351C421.616 22.4931 417.407 21.4861 416.024 21.1561C392.196 15.4581 380.004 9.47911 378.753 2.87711C378.693 2.56011 378.667 2.24011 378.658 1.91811C378.782 1.78811 378.907 1.6591 379.03 1.5291C379.309 1.2691 379.588 1.01011 379.869 0.750107C382.277 -1.48789 384.735 -3.7719 387.116 -6.1039C389.48 -8.2389 391.823 -10.4159 394.041 -12.6369C396.671 -14.8289 399.273 -17.0669 401.721 -19.3539C403.379 -20.7479 404.997 -22.1599 406.546 -23.5919C408.046 -24.8359 409.513 -26.0989 410.918 -27.3809C412.524 -28.6829 414.084 -30.0059 415.572 -31.3519C424.291 -38.3129 431.506 -45.9069 432.787 -54.2799C433.591 -59.5429 431.986 -64.8149 428.016 -69.9499V-69.9499Z" fill="url(#paint0_linear_0_625)"/>
<defs>
<linearGradient id="paint0_linear_0_625" x1="379.483" y1="-84.6332" x2="149.954" y2="-199.798" gradientUnits="userSpaceOnUse">
<stop stop-color="white" stop-opacity="0.01"/>
<stop offset="1" stop-color="white" stop-opacity="0.24"/>
</linearGradient>
</defs>
</svg>
